<svg viewBox="0 0 24 24" xmlns="http://www.w3.org/2000/svg" fill="#4F0599">
  <path d="M12 1.5C6.21 1.5 1.5 6.21 1.5 12S6.21 22.5 12 22.5 22.5 17.79 22.5 12 17.79 1.5 12 1.5zm3.75 15.38H8.25a2.63 2.63 0 0 1-2.63-2.63v-1.5h2.25v1.5c0 .21.17.38.38.38h7.5c.21 0 .38-.17.38-.38v-1.5c0-.21-.17-.38-.38-.38H8.25a2.63 2.63 0 0 1-2.63-2.62v-1.5A2.63 2.63 0 0 1 8.25 5.63h7.5a2.63 2.63 0 0 1 2.63 2.62v1.5h-2.25v-1.5a.38.38 0 0 0-.38-.38h-7.5a.38.38 0 0 0-.38.38v1.5c0 .21.17.38.38.38h7.5a2.63 2.63 0 0 1 2.63 2.62v1.5a2.63 2.63 0 0 1-2.63 2.63z"/>
</svg>
